<svg width="40" height="40" viewBox="0 0 40 40" fill="none" xmlns="http://www.w3.org/2000/svg">
<g id="Group 194">
<g id="Ellipse 42" filter="url(#filter0_d_2_192)">
<circle cx="15" cy="15" r="15" transform="matrix(-1 0 0 1 35 5)" fill="white"/>
</g>
<g id="Group">
<path id="Vector" d="M26.154 19.4233C26.154 19.7335 26.0385 20.0437 25.8082 20.2802L18.5551 27.7221C18.0937 28.1955 17.3457 28.1955 16.8845 27.7221C16.4233 27.2489 16.4233 26.4815 16.8845 26.008L23.3024 19.4233L16.8847 12.8386C16.4235 12.3652 16.4235 11.5979 16.8847 11.1247C17.3459 10.651 18.0939 10.651 18.5553 11.1247L25.8084 18.5665C26.0388 18.8031 26.154 19.1133 26.154 19.4233Z" fill="#00AFA9"/>
</g>
</g>
<defs>
<filter id="filter0_d_2_192" x="0" y="0" width="40" height="40" filterUnits="userSpaceOnUse" color-interpolation-filters="sRGB">
<feFlood flood-opacity="0" result="BackgroundImageFix"/>
<feColorMatrix in="SourceAlpha" type="matrix" values="0 0 0 0 0 0 0 0 0 0 0 0 0 0 0 0 0 0 127 0" result="hardAlpha"/>
<feOffset/>
<feGaussianBlur stdDeviation="2.5"/>
<feComposite in2="hardAlpha" operator="out"/>
<feColorMatrix type="matrix" values="0 0 0 0 0 0 0 0 0 0 0 0 0 0 0 0 0 0 0.13 0"/>
<feBlend mode="normal" in2="BackgroundImageFix" result="effect1_dropShadow_2_192"/>
<feBlend mode="normal" in="SourceGraphic" in2="effect1_dropShadow_2_192" result="shape"/>
</filter>
</defs>
</svg>
